<?xml version="1.0" encoding="UTF-8"?>
<svg viewBox="0 0 58 55" fill="none" xmlns="http://www.w3.org/2000/svg">
    <g clip-path="url(#clip0_11443_87270)">
        <path d="M6.5552 1.73321L6.28396 0.238051H4.47213L2.4906 6.47012C2.38905 6.77637 2.30888 7.14949 2.30888 7.30864C2.30888 7.59215 2.46789 7.78473 3.38449 7.79543L3.35109 7.90911H0L0.0227147 7.79543C0.577221 7.79543 1.15444 7.72723 1.34685 7.10402L3.52078 0.238051H1.69826L0.407529 1.69978H0.30598L0.792342 0.0909424H7.14311L6.64472 1.73321H6.55386H6.5552Z" fill="currentColor"/>
        <path d="M9.82611 5.34808C9.31704 6.44738 9.01106 7.2177 9.01106 7.35411C9.01106 7.42231 9.03377 7.50122 9.12463 7.50122C9.33975 7.50122 9.79271 7.08129 10.2684 6.52629L10.3699 6.61723C9.73659 7.33137 9.12463 8.03348 8.45655 8.03348C8.33229 8.03348 8.196 7.88637 8.196 7.73926C8.196 7.39958 8.52469 6.652 9.1126 5.36011C9.53082 4.43065 9.81409 3.78471 9.81409 3.60417C9.81409 3.46776 9.74594 3.33269 9.58828 3.33269C9.05648 3.33269 8.04902 4.62457 7.26737 5.96192C6.85984 6.65333 6.52046 7.36748 6.32805 7.91045H5.60385L8.61422 1.00836C8.68236 0.861256 8.76119 0.645942 8.76119 0.476098C8.76119 0.215314 8.51267 0.147109 7.99157 0.13641L8.04769 0H9.77935L7.40232 5.26917H7.43572C8.02497 4.33971 9.1901 2.89002 10.0399 2.89002C10.3339 2.89002 10.5837 3.01439 10.5837 3.32065C10.5837 3.69511 10.3459 4.21534 9.82478 5.34941L9.82611 5.34808Z" fill="currentColor"/>
        <!-- [Rest of the SVG paths...] -->
        <path d="M6.44029 37.2038V21.2559C6.44563 19.5053 6.71153 19.0011 8.60086 18.9998C9.43462 18.9998 11.7208 18.9998 11.7208 18.9998C19.0309 18.9998 22.4034 22.5638 22.4034 27.9747C22.4034 33.0955 18.455 37.1717 13.3616 37.2038H6.44029Z" fill="currentColor"/>
        <path d="M51.6092 37.2038H33.8088V20.8854C33.8088 19.4718 34.0934 19.0011 36.0389 19.0011H37.0878V18.64H27.418V19.0011H28.4188C30.3976 19.0011 30.6876 19.4611 30.6876 20.8854V54.6415C30.6876 54.6415 30.3736 54.6415 30.2493 54.6415C27.6598 54.6415 27.1802 53.1196 26.0444 50.6723C22.517 43.0761 20.7332 38.4382 11.3787 37.478L13.1692 37.4846C18.3 37.5127 25.5113 35.607 25.5113 27.9132C25.5113 19.1562 15.6023 18.6467 13.0636 18.6387C13.0636 18.6387 5.14421 18.6387 0.0507746 18.6387V18.9998C0.0507746 18.9998 0.420891 18.9998 0.889883 18.9998C2.99834 18.9984 3.31635 19.3916 3.31768 21.2532V52.6248C3.31768 54.3059 2.87675 54.6135 1.06626 54.6415H0.0494385V55.0013H9.71521V54.6415H8.66098C6.99747 54.588 6.43895 54.3447 6.43895 52.6248V37.5649H8.92688C11.6593 37.5649 13.9695 38.0838 15.7533 39.5335C20.7385 43.5883 21.0191 55.0013 29.3621 55.0013H37.0851V54.6415H36.1925C34.2003 54.6415 33.8075 54.2002 33.8075 52.3761V37.5649H51.6065L51.6011 52.6315C51.5958 54.2885 51.2123 54.6415 49.1987 54.6415C48.7177 54.6415 48.3302 54.6415 48.3302 54.6415V55.0013H57.996V54.6415C57.996 54.6415 57.6232 54.6415 57.1422 54.6415C55.2181 54.6415 54.7237 54.2938 54.7224 52.6315V20.8948C54.7224 19.3542 55.154 19.0011 57.1422 18.9998C57.6232 18.9998 57.996 18.9998 57.996 18.9998V18.6387H48.3302V18.9998C48.3302 18.9998 48.7177 18.9998 49.1987 18.9998C51.211 18.9998 51.5958 19.3354 51.5971 21.0085L51.6051 37.2025L51.6092 37.2038Z" fill="currentColor"/>
    </g>
    <defs>
        <clipPath id="clip0_11443_87270">
            <rect width="58" height="55" fill="white"/>
        </clipPath>
    </defs>
</svg>
